<svg version="1.1" id="Layer_1" xmlns="http://www.w3.org/2000/svg" xmlns:xlink="http://www.w3.org/1999/xlink" x="0px" y="0px" viewBox="0 0 852 204" style="max-height: 60px;" xml:space="preserve"> <defs> <style>
      .st0{fill:#010101;}
    </style> </defs> <g> <path class="st0" d="M272.1,139.5c-3.1,4.9-7.2,8.7-12.1,11.4c-4.9,2.7-10.7,4-17.4,4c-11.3,0-20.1-4.2-26.4-12.6 c-6.4-8.4-9.5-19.6-9.5-33.7v-1.8c0-15,3.2-27,9.5-36.1c6.4-9,15.2-13.5,26.6-13.5c6.6,0,12.2,1.4,17.1,4.1 c4.8,2.8,8.8,6.7,12,11.8V26.2L257.7,25v-7.7h14.2h10.4v127l14.2,1.1v7.7H273L272.1,139.5z M217.2,108.6c0,11.4,2.3,20.4,6.8,27.2 c4.6,6.7,11.4,10.1,20.6,10.1c6.7,0,12.3-1.5,16.8-4.5c4.5-3,8-7.2,10.5-12.4V84.3c-2.3-5.3-5.7-9.7-10.1-13.1 c-4.4-3.4-10.1-5-17-5c-9.2,0-16.1,3.8-20.7,11.3c-4.6,7.5-6.9,17.3-6.9,29.3V108.6z"></path> <path class="st0" d="M377.5,153.1c-0.7-3.2-1.2-5.9-1.5-8.3c-0.3-2.3-0.4-4.7-0.4-7c-3.5,4.9-8.1,9-13.9,12.3 c-5.8,3.2-12.3,4.9-19.6,4.9c-9.2,0-16.4-2.4-21.4-7.1c-5-4.8-7.6-11.2-7.6-19.3c0-8.7,3.7-15.6,11.2-20.7 c7.5-5.1,17.6-7.7,30.5-7.7h20.8V87.6c0-6.7-2.2-12-6.5-15.8c-4.3-3.8-10.4-5.7-18.1-5.7c-5.2,0-10,0.7-14.3,2.1 c-4.3,1.4-7.9,3.4-10.8,5.8L325,86.6h-8.6l0.1-18.1c4.4-3.4,9.6-6.1,15.6-8.2c6.1-2.1,12.5-3.1,19.4-3.1c10.4,0,18.7,2.6,25.1,7.9 c6.3,5.3,9.5,12.9,9.5,22.7v46.3c0,1.9,0,3.8,0.1,5.5c0.1,1.8,0.3,3.5,0.6,5.2l9.4,0.6v7.7H377.5z M343.2,145.7 c7.5,0,14.2-1.7,19.9-5.2c5.7-3.5,9.9-8,12.4-13.5v-18.9h-21c-9.5,0-17,2-22.7,5.9c-5.7,3.9-8.5,8.9-8.5,14.8c0,5,1.8,9.1,5.3,12.2 C332.3,144.1,337.1,145.7,343.2,145.7z"></path> <path class="st0" d="M408.1,66.6v-7.7H431l1.3,14.6c3.2-5.2,7.3-9.3,12.2-12.1c5-2.8,10.8-4.3,17.4-4.3c11.3,0,20.2,4.5,26.5,13.5 c6.4,9,9.6,21,9.6,36.1v1.8c0,14.1-3.2,25.3-9.6,33.7c-6.4,8.4-15.2,12.6-26.4,12.6c-6.6,0-12.4-1.3-17.4-3.8s-9-6.1-12.1-10.7v40 l14.2,1.1v7.7h-38.7v-7.7l14.2-1.1V67.8L408.1,66.6z M487.6,106.8c0-12-2.4-21.7-7.1-29.2c-4.8-7.5-11.7-11.3-20.9-11.3 c-7,0-12.7,1.7-17.1,5c-4.4,3.3-7.7,7.7-9.9,13v45.3c2.4,5.2,5.8,9.2,10.3,12.2c4.5,3,10.1,4.4,16.8,4.4c9.1,0,16-3.4,20.8-10.3 c4.7-6.8,7.1-15.9,7.1-27.2V106.8z"></path> <path class="st0" d="M584.2,137.6c-3,5.5-7,9.8-12.1,12.8c-5.1,3-11.2,4.5-18.1,4.5c-9.9,0-17.7-3.4-23.3-10.1 c-5.6-6.7-8.4-17.2-8.4-31.3V67.8l-11.7-1.1v-7.7h11.7h10.4v54.7c0,11.5,2,19.7,5.9,24.7c3.9,5,9.5,7.5,16.7,7.5 c7.9,0,14.2-1.7,18.8-5.2c4.7-3.5,8-8.3,9.9-14.4V67.8l-13.4-1.1v-7.7h13.4h10.4v85.4l12.6,1.1v7.7h-21.8L584.2,137.6z"></path> <path class="st0" d="M620.1,25v-7.7h24.5v127l14.2,1.1v7.7h-38.7v-7.7l14.2-1.1V26.2L620.1,25z"></path> <path class="st0" d="M743.6,88h-8.5l-1.2-13.3c-2.6-2.7-5.9-4.8-9.9-6.4c-4-1.5-8.5-2.3-13.7-2.3c-7.6,0-13.3,1.6-17.1,4.9 c-3.8,3.3-5.7,7.1-5.7,11.5c0,4.4,1.6,8,4.9,10.8c3.3,2.8,9.8,5.3,19.6,7.5c11.2,2.5,19.6,5.9,25.2,10.2c5.6,4.3,8.4,10.2,8.4,17.6 c0,7.8-3.2,14.2-9.5,19c-6.4,4.8-14.8,7.3-25.2,7.3c-7,0-13.3-1-19-2.9c-5.7-1.9-10.7-4.7-14.8-8.2v-19h8.4l1.5,13.4 c2.8,2.8,6.3,4.8,10.6,6c4.3,1.2,8.7,1.9,13.4,1.9c7.5,0,13.5-1.7,17.8-5c4.4-3.3,6.5-7.3,6.5-12c0-4.4-1.8-8.3-5.4-11.6 c-3.6-3.3-10.2-6-19.6-8.1c-11.2-2.4-19.5-5.7-24.9-9.7c-5.4-4-8.1-9.7-8.1-16.9c0-7.2,3-13.3,9.1-18.2c6.1-5,14.1-7.4,24.1-7.4 c6.9,0,13.2,1.1,18.9,3.2c5.7,2.1,10.4,5,14,8.6L743.6,88z"></path> <path class="st0" d="M806,154.9c-11.8,0-21.6-4.3-29.4-13c-7.8-8.7-11.7-19.7-11.7-33.1V104c0-13.5,3.9-24.6,11.6-33.5 c7.7-8.9,17.1-13.3,28.1-13.3c11.5,0,20.6,3.7,27.2,11c6.6,7.3,9.9,17.1,9.9,29.2v8.9h-66.5v2.5c0,10.6,2.8,19.4,8.5,26.6 c5.7,7.2,13.1,10.7,22.2,10.7c6.4,0,12-0.9,16.5-2.7c4.6-1.8,8.5-4.4,11.7-7.7l4.4,7.1c-3.5,3.7-8,6.7-13.4,8.8 C820,153.8,813.5,154.9,806,154.9z M804.6,66c-7.7,0-14.1,2.9-19.4,8.8c-5.3,5.9-8.3,13.3-9.2,22.1l0.2,0.4h55.2v-2.6 c0-8.2-2.4-15-7.2-20.5C819.4,68.8,812.9,66,804.6,66z"></path> <path class="st0" d="M170.6,95.1c0-44.4-36-80.3-80.3-80.3S10,50.7,10,95.1c0,14.5,3.8,28.1,10.5,39.8c4.6-11.3,11.3-24.7,15.7-28 c0,0,10.2-9.2,20.7-5.8c0,0,45.5,16.3,57.7,31.1c0,0,6.4,9.3,3.7,18.7c-1.1,4-5.1,13.6-9.6,22.4C144.2,165,170.6,133.1,170.6,95.1z M122.7,114.4c-0.7,0.5-1.4,0.9-2.1,1.2c-2.6,0.9-5.6,0.1-7.5-2.2c-7.1-8.7-34.5-22.7-44.5-22.7c-3.8,0-6.8-3-6.9-6.8 c0-3.8,3-6.8,6.8-6.9c15.1-0.1,46.3,16.7,55.2,27.7C126.1,107.8,125.7,112.1,122.7,114.4z M142,106.4 c-18.5-22.8-64.2-42.9-87.2-42.8c-3.4,0-6.2-2.7-6.2-6.1c0-3.4,2.7-6.2,6.1-6.2c26.3-0.1,75.4,21,96.8,47.3 c2.1,2.6,1.7,6.5-0.9,8.6c-0.6,0.5-1.2,0.8-1.9,1.1C146.4,109.2,143.7,108.5,142,106.4z"></path> </g> </svg>